HIERARCHY
ROOT Hips
{
	OFFSET 0.000000 0.000000 0.000000
	CHANNELS 6 Xposition Yposition Zposition Zrotation Yrotation Xrotation 
	JOINT LHipJoint
	{
		OFFSET 0.000000 0.000000 0.000000
		CHANNELS 3 Zrotation Yrotation Xrotation
		JOINT LeftUpLeg
		{
			OFFSET 1.363060 -1.794630 0.839290
			CHANNELS 3 Zrotation Yrotation Xrotation
			JOINT LeftLeg
			{
				OFFSET 2.448110 -6.726130 0.000000
				CHANNELS 3 Zrotation Yrotation Xrotation
				JOINT LeftFoot
				{
					OFFSET 2.562200 -7.039590 0.000000
					CHANNELS 3 Zrotation Yrotation Xrotation
					JOINT LeftToeBase
					{
						OFFSET 0.157640 -0.433110 2.322550
						CHANNELS 3 Zrotation Yrotation Xrotation
						End Site
						{
							OFFSET 0.000000 0.000000 0.000000
						}
					}
				}
			}
		}
	}
	JOINT RHipJoint
	{
		OFFSET 0.000000 0.000000 0.000000
		CHANNELS 3 Zrotation Yrotation Xrotation
		JOINT RightUpLeg
		{
			OFFSET -1.305520 -1.794630 0.839290
			CHANNELS 3 Zrotation Yrotation Xrotation
			JOINT RightLeg
			{
				OFFSET -2.542530 -6.985550 0.000000
				CHANNELS 3 Zrotation Yrotation Xrotation
				JOINT RightFoot
				{
					OFFSET -2.568260 -7.056230 0.000000
					CHANNELS 3 Zrotation Yrotation Xrotation
					JOINT RightToeBase
					{
						OFFSET -0.164730 -0.452590 2.363150
						CHANNELS 3 Zrotation Yrotation Xrotation
						End Site
						{
							OFFSET 0.000000 0.000000 0.000000
						}
					}
				}
			}
		}
	}
	JOINT LowerBack
	{
		OFFSET 0.000000 0.000000 0.000000
		CHANNELS 3 Zrotation Yrotation Xrotation
		JOINT Spine
		{
			OFFSET 0.028270 2.035590 -0.193380
			CHANNELS 3 Zrotation Yrotation Xrotation
			JOINT Spine1
			{
				OFFSET 0.056720 2.048850 -0.042750
				CHANNELS 3 Zrotation Yrotation Xrotation
				JOINT Neck
				{
					OFFSET 0.000000 0.000000 0.000000
					CHANNELS 3 Zrotation Yrotation Xrotation
					JOINT Neck1
					{
						OFFSET -0.054170 1.746240 0.172020
						CHANNELS 3 Zrotation Yrotation Xrotation
						JOINT Head
						{
							OFFSET 0.104070 1.761360 -0.123970
							CHANNELS 3 Zrotation Yrotation Xrotation
							End Site
							{
								OFFSET 0.000000 0.000000 0.000000
							}
						}
					}
				}
				JOINT LeftShoulder
				{
					OFFSET 0.000000 0.000000 0.000000
					CHANNELS 3 Zrotation Yrotation Xrotation
					JOINT LeftArm
					{
						OFFSET 3.362410 1.200890 -0.311210
						CHANNELS 3 Zrotation Yrotation Xrotation
						JOINT LeftForeArm
						{
							OFFSET 4.983000 -0.000000 -0.000000
							CHANNELS 3 Zrotation Yrotation Xrotation
							JOINT LeftHand
							{
								OFFSET 3.483560 -0.000000 -0.000000
								CHANNELS 3 Zrotation Yrotation Xrotation
								JOINT LeftFingerBase
								{
									OFFSET 0.000000 0.000000 0.000000
									CHANNELS 3 Zrotation Yrotation Xrotation
									JOINT LeftHandIndex1
									{
										OFFSET 0.715260 -0.000000 -0.000000
										CHANNELS 3 Zrotation Yrotation Xrotation
										End Site
										{
											OFFSET 0.000000 0.000000 0.000000
										}
									}
								}
								JOINT LThumb
								{
									OFFSET 0.000000 0.000000 0.000000
									CHANNELS 3 Zrotation Yrotation Xrotation
									End Site
									{
										OFFSET 0.000000 0.000000 0.000000
									}
								}
							}
						}
					}
				}
				JOINT RightShoulder
				{
					OFFSET 0.000000 0.000000 0.000000
					CHANNELS 3 Zrotation Yrotation Xrotation
					JOINT RightArm
					{
						OFFSET -3.136600 1.374050 -0.404650
						CHANNELS 3 Zrotation Yrotation Xrotation
						JOINT RightForeArm
						{
							OFFSET -5.241900 -0.000000 -0.000000
							CHANNELS 3 Zrotation Yrotation Xrotation
							JOINT RightHand
							{
								OFFSET -3.444170 -0.000000 -0.000000
								CHANNELS 3 Zrotation Yrotation Xrotation
								JOINT RightFingerBase
								{
									OFFSET 0.000000 0.000000 0.000000
									CHANNELS 3 Zrotation Yrotation Xrotation
									JOINT RightHandIndex1
									{
										OFFSET -0.622530 -0.000000 -0.000000
										CHANNELS 3 Zrotation Yrotation Xrotation
										End Site
										{
											OFFSET 0.000000 0.000000 0.000000
										}
									}
								}
								JOINT RThumb
								{
									OFFSET 0.000000 0.000000 0.000000
									CHANNELS 3 Zrotation Yrotation Xrotation
									End Site
									{
										OFFSET 0.000000 0.000000 0.000000
									}
								}
							}
						}
					}
				}
			}
		}
	}
}
MOTION
Frames: 6
Frame Time: 0.008333
3.389159 17.394996 5.962002 177.188025 -49.780205 -171.813354 18.128261 3.445141 -1.903451 -45.429307 -36.404323 18.598075 -12.705244 -3.210863 -4.691082 5.820943 -6.517675 -42.935365 0.860700 -5.916100 -16.541300 -18.511523 -4.212510 -3.677835 21.702497 18.665601 2.655730 10.985470 -2.247606 9.128622 -0.691616 -7.595147 -22.221252 -0.087800 -1.910600 5.258700 -1.092284 2.349886 10.492716 0.019523 2.952548 -4.916512 -3.601288 0.927942 -14.498273 5.003950 3.453285 -22.645768 4.171327 1.134451 22.316414 -0.461200 0.841000 18.591000 8.321666 -6.688215 0.341407 -81.967697 6.941087 26.765067 22.223912 -35.225899 -8.394275 0.321063 2.129481 4.214355 47.654425 37.793171 31.897100 -7.125000 0.000000 0.000000 27.965000 74.133700 19.625900 -10.179524 7.355554 1.842230 82.009970 -15.676944 34.112161 -21.388513 36.577782 -6.734173 -0.304979 -3.218701 -9.567642 -37.034608 -28.350055 17.057800 7.125000 0.000000 0.000000 -8.067500 -59.492100 2.866600 
3.391227 17.394342 5.955905 177.564807 -49.501356 -172.135487 18.053413 3.462732 -1.906577 -45.143088 -36.416706 18.711431 -12.706964 -3.194851 -4.624385 5.948058 -6.226669 -43.406629 0.964600 -6.253300 -17.521200 -18.545517 -4.188827 -3.684482 21.997213 18.660666 2.555609 11.021996 -2.313175 9.170420 -0.653819 -7.722204 -22.087499 -0.110900 -2.147500 5.913400 -0.849051 2.391633 10.730819 0.018427 3.043245 -4.951166 -3.648754 0.926194 -14.747902 4.773537 3.359367 -22.470059 4.521461 1.120391 21.977887 -0.168800 0.839200 18.224800 8.279519 -6.706697 0.377672 -82.051785 7.878144 25.823995 22.044452 -35.013244 -8.296588 0.280443 2.159040 4.591087 46.139766 38.041271 30.760400 -7.125000 0.000000 0.000000 24.540100 73.972300 17.064300 -10.162746 7.355900 1.814910 81.699909 -15.213946 35.090846 -22.208851 37.260143 -6.938788 -0.139288 -3.171650 -9.772331 -34.833269 -27.031828 15.145400 7.125000 0.000000 0.000000 -5.785600 -57.535100 1.779800 
3.405054 17.396302 5.963743 177.890019 -48.268541 -172.397626 17.971839 3.444050 -1.908893 -45.588820 -37.355503 19.722404 -12.635076 -3.282457 -4.763862 6.663121 -6.774841 -45.909090 0.925900 -6.130100 -17.162300 -18.551035 -4.072511 -3.708941 21.975523 18.626550 1.546213 10.911726 -2.756083 9.793577 -0.534395 -7.383021 -20.818434 -0.119600 -2.229500 6.140300 -0.837127 2.776438 11.027316 -0.019742 3.576877 -4.953025 -3.717970 1.152825 -14.968525 4.567492 3.243790 -22.322517 4.858266 1.087070 21.534020 0.098000 0.841200 17.790100 8.239307 -6.715251 0.417000 -82.053141 8.532732 24.852392 21.741946 -34.649303 -8.108497 0.208701 2.209147 4.971201 43.558892 37.728560 28.436000 -7.125000 0.000000 0.000000 18.907600 72.867000 12.621500 -10.169342 7.345482 1.789144 81.467632 -14.542015 35.908107 -22.953400 37.888156 -7.138625 -0.010327 -3.131054 -9.758638 -33.047028 -26.037584 13.734300 7.125000 0.000000 0.000000 -4.045100 -56.073600 1.100000 
3.402876 17.397173 5.958844 177.770896 -47.850606 -172.250831 17.980132 3.432349 -1.907209 -45.931731 -37.716107 20.053401 -12.605322 -3.283573 -4.774053 6.916016 -7.175584 -46.741126 0.869700 -5.946100 -16.628100 -18.529681 -4.041294 -3.714400 21.779457 18.615667 1.244867 10.855766 -2.832293 9.890454 -0.491861 -7.152624 -20.231356 -0.092100 -1.957100 5.387100 -0.905271 2.903794 10.987194 -0.070203 3.749265 -4.945046 -3.790225 1.219036 -14.945506 4.351944 3.112946 -22.155063 5.182029 1.036983 21.092855 0.346200 0.835200 17.358400 8.190871 -6.698096 0.456871 -81.942848 9.226881 24.114997 21.616066 -34.457472 -8.000629 0.116611 2.245743 4.950335 41.193706 37.791126 26.615500 -7.125000 0.000000 0.000000 14.303500 72.226700 9.309500 -10.174184 7.333530 1.767095 81.264167 -13.975063 36.931371 -23.848977 38.681030 -7.433991 0.106784 -3.104148 -9.792212 -31.799688 -25.888126 13.096200 7.125000 0.000000 0.000000 -2.807200 -55.675000 0.735800 
3.397215 17.399568 5.959715 177.718193 -47.480688 -172.189027 17.992110 3.432468 -1.911730 -46.083905 -37.733309 20.145328 -12.585629 -3.270460 -4.753938 7.024049 -7.863350 -47.009609 0.767700 -5.595200 -15.614200 -18.507301 -4.028896 -3.721781 21.606437 18.416685 0.954523 10.790640 -2.892911 9.977616 -0.480089 -6.698579 -19.533207 -0.066800 -1.667100 4.586600 -0.787967 3.027081 11.046947 -0.143136 3.946296 -4.943546 -4.030660 1.267545 -14.974668 4.171782 2.918216 -22.009324 5.345189 0.884092 20.645277 0.470700 0.777600 16.947700 8.145554 -6.698706 0.497482 -81.843698 9.899685 23.320629 21.351226 -34.127682 -7.837150 0.039123 2.275169 4.644885 39.290225 37.658320 25.091600 -7.125000 0.000000 0.000000 10.879800 71.507100 6.892000 -10.174482 7.317187 1.745988 81.096784 -13.441693 37.931049 -24.716512 39.446000 -7.730017 0.219870 -3.081457 -9.922124 -30.642442 -25.820910 12.554200 7.125000 0.000000 0.000000 -1.660400 -55.388300 0.423500 
3.394493 17.398697 5.963308 177.943577 -47.075941 -172.296045 17.952367 3.431681 -1.927102 -45.854560 -37.652951 20.039146 -12.565063 -3.227986 -4.688400 7.068080 -8.382884 -47.059964 0.693100 -5.322100 -14.829600 -18.510858 -3.993814 -3.734282 21.658764 18.276770 0.595146 10.751465 -3.008080 10.095909 -0.500102 -6.159962 -18.930855 -0.043200 -1.341900 3.690200 -0.526455 3.149661 11.105281 -0.181774 4.164135 -4.929008 -4.188563 1.322587 -15.005152 3.799703 2.689947 -21.558033 5.695892 0.833738 19.752121 0.737200 0.760800 16.112400 8.122247 -6.713069 0.552207 -81.959749 10.564005 22.183698 20.786471 -33.507050 -7.535658 0.028698 2.308334 4.124468 38.177020 35.821418 23.217600 -7.125000 0.000000 0.000000 9.476200 69.163000 5.503500 -10.185071 7.302868 1.735526 80.843522 -12.815892 38.938934 -25.541062 40.090269 -7.916986 0.403370 -3.028599 -9.892864 -27.819060 -24.775548 10.841000 7.125000 0.000000 0.000000 0.949600 -53.770300 -0.204800 
